<?xml version="1.0" encoding="UTF-8"?>
<svg xmlns="http://www.w3.org/2000/svg" xmlns:xlink="http://www.w3.org/1999/xlink" version="1.1" id="Capa_1" x="0px" y="0px" viewBox="0 0 513.852 513.852" style="enable-background:new 0 0 513.852 513.852;" xml:space="preserve" width="512" height="512">
<g>
	<path style="fill:none;stroke:#000000;stroke-width:30;stroke-miterlimit:10;" d="M256.926,186.834&#10;&#9;&#9;c0,0-62.682-38.539-62.682-109.152c0-34.618,28.064-62.682,62.682-62.682s62.682,28.064,62.682,62.682&#10;&#9;&#9;C319.608,148.968,256.926,186.834,256.926,186.834"/>
	<path style="fill:none;stroke:#000000;stroke-width:30;stroke-miterlimit:10;" d="M256.926,327.018&#10;&#9;&#9;c0,0,62.682,38.539,62.682,109.152c0,34.618-28.064,62.682-62.682,62.682s-62.682-28.064-62.682-62.682&#10;&#9;&#9;C194.244,364.884,256.926,327.018,256.926,327.018"/>
	<path style="fill:none;stroke:#000000;stroke-width:30;stroke-miterlimit:10;" d="M327.018,256.926&#10;&#9;&#9;c0,0,38.539-62.682,109.152-62.682c34.618,0,62.682,28.064,62.682,62.682c0,34.618-28.064,62.682-62.682,62.682&#10;&#9;&#9;C364.884,319.608,327.018,256.926,327.018,256.926"/>
	<path style="fill:none;stroke:#000000;stroke-width:30;stroke-miterlimit:10;" d="M186.834,256.926&#10;&#9;&#9;c0,0-38.539,62.682-109.152,62.682C43.064,319.608,15,291.544,15,256.926s28.064-62.682,62.682-62.682&#10;&#9;&#9;C148.968,194.244,186.834,256.926,186.834,256.926"/>
	
		<line style="fill:none;stroke:#000000;stroke-width:30;stroke-miterlimit:10;" x1="326.974" y1="256.883" x2="256.926" y2="326.931"/>
	
		<line style="fill:none;stroke:#000000;stroke-width:30;stroke-miterlimit:10;" x1="256.926" y1="186.834" x2="326.974" y2="256.883"/>
	
		<line style="fill:none;stroke:#000000;stroke-width:30;stroke-miterlimit:10;" x1="186.878" y1="256.883" x2="256.926" y2="186.834"/>
	
		<line style="fill:none;stroke:#000000;stroke-width:30;stroke-miterlimit:10;" x1="256.926" y1="326.931" x2="186.878" y2="256.883"/>
	<g>
		
			<rect x="146.642" y="146.598" transform="matrix(0.7071 -0.7071 0.7071 0.7071 -106.3914 256.9133)" style="fill:none;stroke:#000000;stroke-width:30;stroke-miterlimit:10;" width="220.568" height="220.568"/>
	</g>
	<g>
		
			<line style="fill:none;stroke:#000000;stroke-width:30;stroke-miterlimit:10;" x1="194.729" y1="435.685" x2="78.167" y2="319.123"/>
		
			<line style="fill:none;stroke:#000000;stroke-width:30;stroke-miterlimit:10;" x1="435.685" y1="319.123" x2="319.123" y2="435.685"/>
		
			<line style="fill:none;stroke:#000000;stroke-width:30;stroke-miterlimit:10;" x1="319.167" y1="78.123" x2="435.729" y2="194.685"/>
		
			<line style="fill:none;stroke:#000000;stroke-width:30;stroke-miterlimit:10;" x1="78.123" y1="194.685" x2="194.685" y2="78.123"/>
	</g>
	<path style="fill:none;stroke:#000000;stroke-width:30;stroke-miterlimit:10;" d="M332.123,91.078&#10;&#9;&#9;c25.363-18.342,61.098-16.101,83.927,6.726c22.827,22.827,25.069,58.564,6.726,83.928"/>
	<path style="fill:none;stroke:#000000;stroke-width:30;stroke-miterlimit:10;" d="M179.447,424.353&#10;&#9;&#9;c-10.795,7.12-23.264,10.68-35.733,10.68c-16.625,0-33.251-6.329-45.908-18.985c-22.842-22.842-25.072-58.609-6.691-83.976"/>
	<path style="fill:none;stroke:#000000;stroke-width:30;stroke-miterlimit:10;" d="M422.749,332.069&#10;&#9;&#9;c7.998,11.003,12.316,24.205,12.316,38.07c0,17.342-6.753,33.646-19.015,45.908c-12.655,12.655-29.284,18.985-45.907,18.985&#10;&#9;&#9;c-13.363,0-26.721-4.086-38.022-12.26"/>
	<path style="fill:none;stroke:#000000;stroke-width:30;stroke-miterlimit:10;" d="M91.079,181.729&#10;&#9;&#9;c-18.341-25.363-16.099-61.099,6.728-83.925c22.152-22.149,56.454-24.916,81.641-8.305"/>
</g>















</svg>
