<svg height="511pt" viewBox="0 -16 511.9998 511" width="511pt" xmlns="http://www.w3.org/2000/svg"><path d="m511.410156 245.214844c1.992188-6.910156-1.199218-14.265625-7.605468-17.527344-25.734376-13.097656-54.828126-19.84375-83.742188-19.636719 5.253906-28.082031 3.789062-57.347656-4.761719-85.5-2.089843-6.882812-8.769531-11.3125-15.921875-10.558593-29.109375 3.0625-56.582031 12.945312-80.582031 28.84375-10.613281-30.628907-28.464844-60.714844-53.246094-81.179688-5.542969-4.582031-13.558593-4.582031-19.101562 0-24.789063 20.46875-42.632813 50.558594-53.246094 81.179688-24-15.898438-51.472656-25.78125-80.578125-28.84375-7.148438-.75-13.832031 3.675781-15.921875 10.558593-8.554687 28.152344-10.019531 57.417969-4.765625 85.5-28.914062-.207031-58.007812 6.535157-83.742188 19.636719-6.40625 3.261719-9.597656 10.613281-7.605468 17.523438 11.09375 38.464843 34.457031 71.566406 66.164062 94.890624-14.078125 14.105469-25.816406 30.238282-33.867187 46.753907-1.265625 2.589843-3.566407 9.4375 2.351562 17.027343 9.492188 12.167969 61.929688 58.160157 127.5625 44.320313 17.117188-3.609375 31.691407-10.277344 44.074219-18.535156 10.40625 17.210937 23.65625 32.527343 39.574219 45.671875 2.769531 2.289062 6.160156 3.433594 9.550781 3.433594 3.386719 0 6.78125-1.144532 9.550781-3.433594 15.921875-13.148438 29.171875-28.46875 39.578125-45.679688 12.386719 8.261719 26.960938 14.933594 44.070313 18.542969 59.480469 12.542969 112.746093-25.328125 127.558593-44.320313 5.917969-7.589843 3.617188-14.4375 2.355469-17.027343-8.054687-16.515625-19.789062-32.648438-33.867187-46.753907 31.707031-23.324218 55.074218-56.425781 66.164062-94.886718zm-32.917968 3.886718c-14.375 37.457032-43.238282 67.636719-80.738282 83.914063-28.578125 12.40625-59.410156 15.53125-88.992187 9.578125 34.105469-13.292969 63.539062-36.777344 84.351562-68.160156 7.574219-11.425782 13.738281-23.527344 18.472657-36.070313 22.675781-1.5 45.804687 2.21875 66.90625 10.738281zm-88.6875-105.398437c8.402343 39.34375.746093 80.3125-21.695313 114.152344-17.332031 26.140625-41.859375 45.714843-70.285156 56.792969 21.402343-30.109376 33.175781-66.316407 33.175781-104.152344 0-12.578125-1.347656-25.679688-3.890625-38.765625 18.460937-14.105469 39.8125-23.65625 62.695313-28.027344zm-133.804688-51.980469c26.878906 28.253906 45 75.078125 45 118.773438 0 40.605468-16.257812 78.976562-45 107.125-28.742188-28.148438-45-66.519532-45-107.125 0-43.710938 18.128906-90.523438 45-118.773438zm-133.804688 51.980469c22.882813 4.375 44.234376 13.921875 62.695313 28.03125-2.542969 13.082031-3.890625 26.1875-3.890625 38.765625 0 37.828125 11.773438 74.035156 33.171875 104.144531-28.421875-11.074219-52.941406-30.640625-70.28125-56.789062-22.441406-33.839844-30.097656-74.808594-21.695313-114.152344zm-88.6875 105.398437c21.101563-8.519531 44.230469-12.238281 66.90625-10.738281 4.734376 12.542969 10.898438 24.648438 18.472657 36.070313 20.8125 31.386718 50.242187 54.863281 84.339843 68.148437-29.570312 5.964844-60.402343 2.84375-88.980468-9.5625-37.5-16.28125-66.363282-46.460937-80.738282-83.917969zm123.105469 169.75c-33.347656 7.03125-67.636719-6.492187-91.941406-27.773437 7.347656-12.417969 17.15625-24.371094 28.535156-34.785156 2.984375 1.488281 6.011719 2.90625 9.09375 4.242187 39.640625 17.210938 82.867188 19.53125 123.1875 7.363282-13.386719 20.46875-34.859375 43.78125-68.875 50.953124zm99.386719 24.789063c-10.257812-9.996094-18.894531-21.226563-25.824219-33.550781 11.144531-11.5625 19.5625-23.871094 25.816407-34.492188 6.257812 10.605469 14.6875 22.917969 25.839843 34.480469-6.929687 12.332031-15.570312 23.566406-25.832031 33.5625zm191.328125-52.5625c-24.246094 21.230469-58.535156 34.816406-91.941406 27.773437-33.960938-7.160156-55.449219-30.46875-68.859375-50.921874 40.65625 12.246093 83.84375 9.679687 123.171875-7.394532 3.078125-1.335937 6.113281-2.753906 9.09375-4.246094 11.378906 10.417969 21.1875 22.367188 28.535156 34.789063zm0 0"/><path d="m211 45.5c0 8.285156-6.714844 15-15 15s-15-6.714844-15-15 6.714844-15 15-15 15 6.714844 15 15zm0 0"/><path d="m331 45.5c0 8.285156-6.714844 15-15 15s-15-6.714844-15-15 6.714844-15 15-15 15 6.714844 15 15zm0 0"/><path d="m271 15.5c0 8.285156-6.714844 15-15 15s-15-6.714844-15-15 6.714844-15 15-15 15 6.714844 15 15zm0 0"/></svg>