<svg id="k" height="512" viewBox="0 0 48 48" width="512" xmlns="http://www.w3.org/2000/svg"><path d="m4.9 25.3c-.29 1.56-.03 2.56.29 3.44.38 1.03.9 1.83-.1 3.82-.25.49-.05 1.1.45 1.34.49.25 1.1.05 1.34-.45 1.2-2.4.87-3.6.42-4.8-.24-.64-.56-1.29-.51-2.3.67.09 1.34-.03 1.84-.17.33.38.69.64 1.04.81-.59 2.57-.1 4.19.26 5.5.16.59.33 1.09.16 1.64-.11.36-.37.73-.8 1.16-.39.39-.39 1.02 0 1.42.39.39 1.02.39 1.42 0 1.51-1.51 1.6-2.65 1.36-3.91-.25-1.31-1.11-2.83-.34-5.74.38-.14.78-.35 1.17-.65.25.23.5.4.75.54-.05.62.05 1.25.22 1.9.13.53.31 1.06.38 1.59.05.37.05.75-.14 1.12-.25.49-.05 1.1.45 1.34.49.25 1.1.05 1.34-.45.58-1.16.38-2.36.06-3.54-.16-.6-.39-1.19-.32-1.76.44-.13.89-.37 1.35-.74.59.62 1.46 1.57 2.15 2.46.43.55.8 1.07.93 1.44.14.42-.07.84-.25 1.27-.32.76-.71 1.53-.79 2.31-.11.95.09 2.28.16 3.41.03.51.08.97-.06 1.25-.03.05-.08.06-.14.09-.13.05-.28.08-.43.1-.62.1-1.31.13-1.86.31-2.41.8-3.68 2.18-4.23 2.95h-1.83l1.28-2.55c.25-.49.05-1.1-.45-1.34-.49-.25-1.1-.05-1.34.45l-1.11 2.21-1.11-2.21c-.25-.49-.85-.69-1.34-.45-.49.25-.69.85-.45 1.34l1.28 2.55h-2.38c-.55 0-1 .45-1 1s.45 1 1 1h34.97c.55 0 1-.45 1-1s-.45-1-1-1h-1.63c-.75-.64-2.79-2.33-3.92-2.89-.73-.36-1.66-.4-2.53-.46-.25-.02-.49-.04-.71-.08-.17-.04-.33-.08-.44-.2-.74-.89-1.63-3.13-1.77-4.47-.13-1.19.56-2.4.95-3.57.48-1.45 1.73-2.88 2.81-3.93.06.46.17.87.28 1.26.18.63.43 1.18.07 1.9-.25.49-.05 1.1.45 1.34.49.25 1.1.05 1.34-.45.53-1.07.45-1.92.22-2.81-.18-.68-.5-1.4-.37-2.44.72.69 1.48.98 2.22.98.19 0 .39-.02.59-.07.55 2.59-.22 4.02-.46 5.25-.24 1.26-.15 2.4 1.36 3.91.39.39 1.02.39 1.41 0s.39-1.02 0-1.42c-.44-.44-.69-.8-.8-1.16-.17-.54 0-1.04.16-1.64.33-1.22.77-2.69.37-4.95.46.29.99.46 1.55.41.04.06.08.12.13.18 0 .04.03.22.03.34-.02.41-.11.88-.17 1.35-.18 1.43-.01 2.8 1.42 3.52.49.25 1.1.05 1.34-.45.25-.49.05-1.1-.45-1.34-.33-.17-.38-.47-.38-.79 0-.41.07-.85.13-1.27.08-.57.13-1.12.07-1.57-.05-.37-.18-.7-.38-.97 1.09-1.24 1.18-2.78 1.1-3.6-.12-1.24-.84-1.96-1.52-2.38.25-.54.33-1.07.26-1.57-.05-.34-.18-.68-.4-1 .58-.79.89-1.61.79-2.43-.07-.6-.36-1.24-1.01-1.88.1-.5.19-1.22.09-1.94-.14-1.03-.62-2.03-1.76-2.6-1.08-.54-2.15-.45-3.06-.13-.63.23-1.17.57-1.55.85-.56-.21-1.06-.23-1.51-.15-.42.08-.8.27-1.16.55-.21-.26-.45-.48-.72-.66-.51-.35-1.12-.55-1.85-.58-.75-1.32-2-2.04-3.81-2.04-.29-.86-1.01-1.95-2.81-1.95-1.53 0-2.61.89-3.24 1.62-.72-.4-1.4-.54-2.03-.51-1.15.07-2.22.76-3.2 1.89-.91.04-1.52.37-1.91.82-.18.2-.32.44-.42.71-.58-.17-1.13-.19-1.64-.08-.78.17-1.51.66-2.14 1.58-1.42.12-2.48.58-3.21 1.3-.77.77-1.2 1.86-1.22 3.3-.73.87-1.04 1.58-.99 2.43.04.62.3 1.36.76 2.01-.35.63-.76 1.66-.76 2.93 0 1.62.38 2.64.91 3.3zm38.09 16.7c.55 0 1 .45 1 1s-.45 1-1 1-1-.45-1-1 .45-1 1-1zm-16.42-19.56c-.28.21-.57.36-.86.46l-1.79 4.47c-.13.33-.44.57-.8.62s-.72-.1-.93-.39l-2.17-2.9c-.14.16-.29.31-.45.44-.19.16-.41.29-.66.41.56.61 1.23 1.36 1.79 2.08.6.77 1.07 1.52 1.24 2.04.25.74.14 1.49-.13 2.24-.26.72-.74 1.45-.82 2.19-.09.85.11 2.04.17 3.07.06.93-.01 1.75-.27 2.27-.32.65-.9 1.01-1.63 1.19-.61.15-1.37.12-1.95.31-.87.29-1.54.67-2.05 1.05h11.33c-.36-.58-.58-1.24-.59-1.98 0-.55.43-1.01.98-1.02.55 0 1.01.43 1.02.98.01.88.59 1.48 1.32 2.02h5.89c-.6-.46-1.21-.88-1.66-1.11-.64-.32-1.51-.21-2.25-.29-.85-.1-1.57-.37-2.07-.96-.92-1.11-2.04-3.87-2.23-5.53-.16-1.46.57-2.99 1.05-4.43.76-2.27 3.1-4.56 4.42-5.71-.08-.06-.15-.12-.23-.19-.2-.17-.38-.34-.56-.52-1.23.69-2.55 1.89-3.95 3.42-.3.33-.78.42-1.18.22-.4-.19-.62-.63-.55-1.06l.56-3.39zm-3.36 9.93c-.69.85-.86 1.83-.86 2.88s.27 2.25-.25 3.3c-.25.49-.05 1.1.45 1.34.49.25 1.1.05 1.34-.45.58-1.16.53-2.41.48-3.62-.03-.8-.1-1.57.4-2.2.35-.43.28-1.06-.15-1.41s-1.06-.28-1.41.15zm8.76-12.21c.02-.15.02-.3-.03-.44-.11-.37-.42-.64-.8-.7 0 0-2.34-.35-3.48.04-.62.21-1.25.82-1.86 1.4-.16.15-.32.3-.48.42-.08.06-.14.14-.22.13-.18-.02-.37 0-.54.09-1.43.67-2.79 1.07-3.94.13-.29-.23-.68-.29-1.02-.15s-.57.46-.61.82c-.07.69-.21 1.31-.69 1.69-.31.25-.76.38-1.37.41-.27.01-.52.13-.7.33-.5.56-.92.92-1.37.92-.4 0-.71-.32-1.06-.83-.17-.24-.44-.4-.73-.42-.3-.03-.59.08-.8.29-.36.36-.7.65-1.04.81-.2.1-.39.16-.58.12-.31-.06-.56-.34-.83-.77-.28-.43-.83-.59-1.29-.36 0 0-.97.53-1.74.19-.53-.23-.81-.91-.81-2.3s.77-2.36.77-2.36c.33-.4.3-.98-.06-1.35-.4-.4-.68-.92-.71-1.35-.03-.46.3-.78.74-1.27.18-.19.27-.45.26-.71-.04-.97.13-1.72.63-2.21.51-.51 1.32-.73 2.39-.75.36 0 .69-.21.86-.52.33-.6.67-.99 1.11-1.08.45-.1.94.1 1.48.45.32.2.72.21 1.05.01.32-.19.51-.55.48-.93-.02-.33-.04-.61.11-.78s.43-.17.83-.15c.33.02.65-.12.85-.38.65-.82 1.28-1.46 2.06-1.51.47-.03.96.2 1.52.66.23.2.55.27.84.21.3-.06.55-.26.69-.53 0 0 .69-1.45 2.11-1.45 1 0 1 1 1 1 0 .29.12.56.34.75.21.19.5.28.78.24 1.51-.18 2.5.25 2.95 1.38.16.41.58.67 1.02.62.51-.05.93.01 1.25.23.33.22.55.6.7 1.08.12.38.45.65.85.69.39.04.77-.15.97-.49.24-.42.47-.79.84-.86.23-.04.48.05.79.23.39.22.88.16 1.2-.16 0 0 .4-.39.99-.69.51-.25 1.18-.46 1.85-.13.61.31.7.95.7 1.48 0 .71-.2 1.31-.2 1.31-.13.4 0 .84.33 1.1.45.35.71.66.75.99.03.2-.05.4-.15.6-.17.32-.42.63-.72.94-.19.21-.29.48-.27.76s.16.54.38.71c.2.16.34.3.37.48.06.35-.2.7-.53 1.1-.23.28-.29.66-.16.99.13.34.43.58.78.63 0 0 1.07.14 1.16 1.11.05.5.02 1.47-.71 2.2-.12.12-.22.2-.34.22-.16.02-.29-.1-.42-.2-.4-.33-.66-.8-.66-.8-.16-.28-.44-.47-.76-.51s-.64.08-.86.32c-.46.51-.87.84-1.31.84-.41 0-.77-.31-1.16-.8-.17-.22-.43-.35-.71-.37-.83-.06-1.56-.69-2.13-1.33-.46-.53-.85-1.29-.96-1.52zm-8.72 3.49c-.49.1-.98.14-1.45.11l.92 1.22zm7.22-2c-.16-.28-.29-.54-.37-.76-.37-.04-.83-.07-1.24-.04-.14.87-.38 2.28-.38 2.28.68-.59 1.35-1.09 1.99-1.47zm6.55-5.4c.2.79.34 1.51-.42 1.83-.51.22-.74.8-.53 1.31.22.51.8.74 1.31.53 1.8-.77 2.05-2.3 1.58-4.17-.14-.53-.68-.86-1.22-.72-.53.14-.86.68-.72 1.22zm-27.71 2.49c1.18 1.09 2.27 1.36 3.2 1.11.88-.24 1.72-1.02 2.38-2.42.24-.5.02-1.1-.48-1.33-.5-.24-1.1-.02-1.33.48-.34.72-.65 1.22-1.1 1.34-.4.11-.8-.18-1.31-.65-.41-.37-1.04-.35-1.41.05-.37.41-.35 1.04.05 1.41zm16.84-6.27c-.53.83-.66 1.64-.43 2.4.2.69.74 1.38 1.76 2 .47.28 1.09.13 1.37-.34s.13-1.09-.34-1.37-.78-.54-.88-.85c-.07-.24.04-.49.21-.75.3-.47.16-1.09-.31-1.38-.47-.3-1.09-.16-1.38.31zm-9.91 2.19c.65.75 1.37 1.1 2.13 1.11.7.01 1.49-.28 2.3-1.03.41-.37.44-1 .06-1.41-.37-.41-1-.44-1.41-.06-.34.31-.63.51-.92.5-.24 0-.44-.18-.64-.42-.36-.42-.99-.47-1.41-.11s-.47.99-.11 1.41z" fill-rule="evenodd"/></svg>