<?xml version="1.0" encoding="UTF-8"?>
<svg xmlns="http://www.w3.org/2000/svg" xmlns:xlink="http://www.w3.org/1999/xlink" version="1.1" id="Capa_1" x="0px" y="0px" viewBox="0 0 512.719 512.719" style="enable-background:new 0 0 512.719 512.719;" xml:space="preserve" width="512" height="512">
<g>
	<g id="compulsive_daydreamer_00000042711970472697981970000015554924972944695998_">
		<g>
			<path style="fill:none;stroke:#000000;stroke-width:30;stroke-linecap:round;stroke-linejoin:round;stroke-miterlimit:10;" d="&#10;&#9;&#9;&#9;&#9;M323.577,34.767c33.737,15.565,61.161,42.257,77.321,75.713c20.965,43.403,25.544,86.497,18.066,125.298l39.54,70.123&#10;&#9;&#9;&#9;&#9;c8.212,14.564-2.311,32.578-19.031,32.578h-19.159l-14.228,84.375c-2.172,12.882-13.328,22.314-26.391,22.314h-58.641v52.551&#10;&#9;&#9;&#9;&#9;l-209.982-40V336.787c-36.709-33.888-59.707-82.409-59.707-136.308C51.365,70.141,185.803-28.797,323.577,34.767z"/>
		</g>
	</g>
	<path style="fill:none;stroke:#000000;stroke-width:30;stroke-linecap:round;stroke-linejoin:round;stroke-miterlimit:10;" d="&#10;&#9;&#9;M92.896,83.536c56.801-63.964,154.699-69.771,218.663-12.97c51.171,45.44,55.817,123.76,10.376,174.931&#10;&#9;&#9;c-36.352,40.937-99.008,44.653-139.945,8.301c-32.749-29.082-35.723-79.206-6.641-111.956c23.266-26.2,63.365-28.578,89.564-5.313&#10;&#9;&#9;c20.96,18.613,22.862,50.692,4.25,71.652c-14.89,16.768-40.554,18.29-57.321,3.4c-13.414-11.912-14.632-32.443-2.72-45.857"/>
</g>















</svg>
